<svg xmlns="http://www.w3.org/2000/svg" version="1.1" xmlns:xlink="http://www.w3.org/1999/xlink" xmlns:svgjs="http://svgjs.dev/svgjs" width="1000" height="1000" viewBox="0 0 1000 1000"><rect width="1000" height="1000" fill="#ffffff"></rect><g transform="matrix(0.7,0,0,0.7,151.05000000000013,130.7580723404257)"><svg viewBox="0 0 134 141" data-background-color="#ffffff" preserveAspectRatio="xMidYMid meet" height="1052" width="1000" xmlns="http://www.w3.org/2000/svg" xmlns:xlink="http://www.w3.org/1999/xlink"><g id="tight-bounds" transform="matrix(1,0,0,1,-0.20100000000002183,0.19949999999997203)"><svg viewBox="0 0 134.40178785619173 140.60052000000002" height="140.60052000000002" width="134.40178785619173"><g><svg viewBox="0 0 134.40178785619173 140.60052000000002" height="140.60052000000002" width="134.40178785619173"><g><svg viewBox="0 0 134.40178785619173 140.60052000000002" height="140.60052000000002" width="134.40178785619173"><g><path d="M0 140.601v-140.601h134.402v140.601z" fill="#202046" stroke="transparent" stroke-width="0" rx="0%" data-fill-palette-color="tertiary"></path><path d="M3.283 137.317v-134.034h127.836v134.034z" fill="#ffffff" stroke="transparent" stroke-width="0" rx="0%" data-fill-palette-color="quaternary"></path><path d="M9.85 130.751v-120.901h114.702v120.901z" fill="#202046" stroke="transparent" stroke-width="0" data-fill-palette-color="tertiary"></path></g><g transform="matrix(1,0,0,1,19.69973999999999,19.69974)" id="textblocktransform"><svg viewBox="0 0 95.00230785619175 101.20104000000002" height="101.20104000000002" width="95.00230785619175" id="textblock"><g><svg viewBox="0 0 95.00230785619175 101.20104000000002" height="101.20104000000002" width="95.00230785619175"><g transform="matrix(1,0,0,1,0,0)"><svg width="95.00230785619175" viewBox="-0.800000011920929 -37.150001525878906 35.25 37.55000305175781" height="101.20104000000002" data-palette-color="#ffffff"><path d="M-0.8-34.65L-0.8-37.15 12.5-37.15 12.5-34.65 8.05-34.05 16.3-10.6 18.15-4.5 19.8-10.7 27.25-34.05 23.3-34.65 23.3-37.15 34.45-37.15 34.45-34.65 31.25-34.05 19.4 0.4 15.05 0.4 2.25-34.05-0.8-34.65Z" opacity="1" transform="matrix(1,0,0,1,0,0)" fill="#ffffff" class="undefined-text-0" data-fill-palette-color="quaternary" id="text-0"></path></svg></g></svg></g></svg></g></svg></g><g></g></svg></g><defs></defs></svg><rect width="134.40178785619173" height="140.60052000000002" fill="none" stroke="none" visibility="hidden"></rect></g></svg></g></svg>